<?xml version="1.0" encoding="utf-8"?>
<!-- Generator: Adobe Illustrator 25.4.0, SVG Export Plug-In . SVG Version: 6.00 Build 0)  -->
<svg version="1.1" id="Layer_1" xmlns="http://www.w3.org/2000/svg" xmlns:xlink="http://www.w3.org/1999/xlink" x="0px" y="0px"
	 viewBox="0 0 230.7 52.9" style="enable-background:new 0 0 230.7 52.9;" xml:space="preserve">
<style type="text/css">
	.st0{fill:#CE1230;}
</style>
<path d="M139.7,41.6c-0.2-0.2-0.2-0.4-0.2-0.6V18.6c0-0.2,0.1-0.4,0.2-0.6c0.1-0.2,0.3-0.2,0.6-0.2h3.1c0.2,0,0.4,0.1,0.6,0.2
	c0.2,0.2,0.2,0.4,0.2,0.6v8l7.7-8.3c0.3-0.4,0.8-0.6,1.3-0.6h3.5c0.2,0,0.3,0.1,0.5,0.2c0.1,0.1,0.2,0.3,0.2,0.5
	c0,0.2-0.1,0.3-0.2,0.4L148,29.3l10,11.4c0.1,0.1,0.1,0.3,0.1,0.4c0,0.2-0.1,0.4-0.2,0.5c-0.1,0.1-0.3,0.2-0.5,0.2h-3.6
	c-0.4,0-0.7-0.1-1-0.3l-0.3-0.3l-8.2-9.1V41c0,0.2-0.1,0.4-0.2,0.6c-0.2,0.2-0.4,0.2-0.6,0.2h-3.1C140.1,41.8,139.9,41.8,139.7,41.6
	"/>
<path class="st0" d="M28.6,14C17.1,14,7.8,21.3,7.8,30.2c0,6.8,5.3,12.6,12.9,15c-1.7,2.6-6.1,7.2-4.2,7.7h0.4
	c0.5-0.1,2.9-0.9,3.2-1c7.7-2.8,15-5.6,18.7-7.6c6.3-2.8,10.6-8.1,10.6-14.1C49.3,21.2,40,14,28.6,14 M28.6,41.9
	c-8.4,0-15.2-5.2-15.2-11.6s6.8-11.6,15.2-11.6s15.2,5.2,15.2,11.6S37,41.9,28.6,41.9"/>
<path class="st0" d="M28.6,0C27.4,0,27,1.3,27,4.9c0,2.8,0.3,3.9,1,4.5c0.2,0.2,0.4,0.2,0.6,0.3c0.2,0,0.4-0.1,0.6-0.3
	c0.7-0.6,1-1.7,1-4.5C30.2,1.3,29.8,0.1,28.6,0"/>
<path class="st0" d="M10.7,6.9c-1,0.8-0.6,1.9,1.3,4.4c1.4,1.9,2.2,2.6,3.1,2.5c0.2,0,0.4-0.1,0.6-0.2c0.2-0.1,0.4-0.3,0.4-0.6
	c0.3-0.9-0.1-1.8-1.5-3.7C12.6,6.8,11.6,6.2,10.7,6.9"/>
<path class="st0" d="M4.2,19.2c-2.4-1.5-3.5-1.6-4-0.7s0.1,1.8,2.5,3.2c1.8,1.1,2.7,1.4,3.5,1c0.2-0.1,0.4-0.2,0.5-0.4
	c0.1-0.2,0.1-0.4,0.1-0.6C6.7,21,6.1,20.3,4.2,19.2"/>
<path class="st0" d="M46.3,6.8c-1-0.7-2,0-3.8,2.6c-1.4,2-1.7,2.9-1.4,3.8c0.1,0.2,0.2,0.4,0.4,0.5c0.2,0.1,0.4,0.2,0.6,0.2
	c0.9,0,1.7-0.7,3-2.6C47,8.7,47.3,7.5,46.3,6.8"/>
<path class="st0" d="M52.7,19.2c2.4-1.5,3.5-1.6,4-0.7s-0.1,1.8-2.5,3.2c-1.8,1.1-2.7,1.4-3.5,1c-0.2-0.1-0.4-0.2-0.5-0.4
	c-0.1-0.2-0.1-0.4-0.1-0.6C50.2,21,50.8,20.3,52.7,19.2"/>
<path class="st0" d="M72.4,41.5c-0.2-0.2-0.2-0.4-0.2-0.6V22h-6.4c-0.2,0-0.4-0.1-0.6-0.2c-0.2-0.2-0.2-0.4-0.2-0.6v-2.6
	c0-0.2,0.1-0.4,0.2-0.6c0.1-0.2,0.3-0.2,0.6-0.2h17.6c0.2,0,0.4,0.1,0.6,0.2c0.2,0.2,0.2,0.4,0.2,0.6v2.6c0,0.2-0.1,0.4-0.2,0.6
	C83.8,22,83.6,22,83.4,22H77v18.9c0,0.2-0.1,0.4-0.2,0.6c-0.1,0.2-0.3,0.2-0.6,0.2H73C72.7,41.7,72.5,41.7,72.4,41.5"/>
<path class="st0" d="M87.3,41.6c-0.2-0.2-0.2-0.4-0.2-0.6V18.6c0-0.2,0.1-0.4,0.2-0.6c0.1-0.2,0.3-0.2,0.6-0.2H91
	c0.2,0,0.4,0.1,0.6,0.2c0.2,0.2,0.2,0.4,0.2,0.6v8.8h10v-8.8c0-0.2,0.1-0.4,0.2-0.6c0.2-0.2,0.4-0.2,0.6-0.2h3.2
	c0.2,0,0.4,0.1,0.6,0.2c0.1,0.2,0.2,0.4,0.2,0.6V41c0,0.2-0.1,0.4-0.2,0.6c-0.1,0.2-0.3,0.2-0.6,0.2h-3.2c-0.2,0-0.4-0.1-0.6-0.2
	c-0.2-0.2-0.2-0.4-0.2-0.6v-9.2h-10V41c0,0.2-0.1,0.4-0.2,0.6c-0.2,0.2-0.4,0.2-0.6,0.2h-3.2C87.6,41.8,87.4,41.8,87.3,41.6"/>
<path class="st0" d="M109.6,41.6c-0.2-0.2-0.2-0.4-0.2-0.6V25.2c0-0.2,0.1-0.4,0.2-0.6c0.2-0.2,0.4-0.2,0.6-0.2h3.3
	c0.2,0,0.4,0.1,0.6,0.2c0.1,0.2,0.2,0.4,0.2,0.6V41c0,0.2-0.1,0.4-0.2,0.6c-0.1,0.2-0.4,0.2-0.6,0.2h-3.3
	C109.9,41.8,109.7,41.8,109.6,41.6"/>
<path class="st0" d="M117.2,41.6c-0.2-0.2-0.2-0.4-0.2-0.6V18.6c0-0.2,0.1-0.4,0.2-0.6c0.1-0.2,0.3-0.2,0.6-0.2h2.7
	c0.4,0,0.8,0.2,1,0.6l9.8,15.3v-15c0-0.2,0.1-0.4,0.2-0.6c0.1-0.2,0.3-0.2,0.6-0.2h3c0.2,0,0.4,0.1,0.6,0.2c0.2,0.2,0.2,0.4,0.2,0.6
	V41c0,0.2-0.1,0.4-0.2,0.6c-0.2,0.2-0.4,0.2-0.6,0.2h-2.7c-0.4,0-0.8-0.2-1-0.6l-9.8-14.9V41c0,0.2-0.1,0.4-0.2,0.6
	c-0.1,0.2-0.3,0.2-0.6,0.2h-3C117.5,41.8,117.3,41.8,117.2,41.6"/>
<path class="st0" d="M138.7,41.6c-0.2-0.2-0.2-0.4-0.2-0.6V18.6c0-0.2,0.1-0.4,0.2-0.6c0.1-0.2,0.3-0.2,0.6-0.2h3.1
	c0.2,0,0.4,0.1,0.6,0.2c0.2,0.2,0.2,0.4,0.2,0.6v8l7.7-8.3c0.3-0.4,0.8-0.6,1.3-0.6h3.5c0.2,0,0.3,0.1,0.5,0.2
	c0.1,0.1,0.2,0.3,0.2,0.5c0,0.2-0.1,0.3-0.2,0.4L147,29.3l10,11.4c0.1,0.1,0.1,0.3,0.1,0.4c0,0.2-0.1,0.4-0.2,0.5
	c-0.1,0.1-0.3,0.2-0.5,0.2h-3.6c-0.4,0-0.7-0.1-1-0.3l-0.3-0.3l-8.2-9.1V41c0,0.2-0.1,0.4-0.2,0.6c-0.2,0.2-0.4,0.2-0.6,0.2h-3.1
	C139.1,41.8,138.9,41.8,138.7,41.6"/>
<path class="st0" d="M162.2,41.2c-1.3-0.5-2.4-1.3-3.2-2.4c-0.7-0.8-1.1-1.9-1.1-3c0-0.2,0.1-0.4,0.2-0.5c0.1-0.1,0.3-0.2,0.5-0.2
	h3.2c0.5,0,0.9,0.3,1,0.7c0.5,1.6,2,2.4,4.5,2.4c1.2,0.1,2.4-0.3,3.3-1c0.8-0.7,1.3-1.7,1.2-2.8c0.1-1-0.3-2-1.1-2.6
	c-1-0.6-2.1-0.9-3.2-0.8H164c-0.2,0-0.4-0.1-0.6-0.2c-0.2-0.2-0.2-0.4-0.2-0.6v-1.5c0-0.4,0.1-0.8,0.4-1l6.1-6H160
	c-0.2,0-0.4-0.1-0.6-0.2c-0.2-0.2-0.2-0.4-0.2-0.6v-2.3c0-0.2,0.1-0.4,0.2-0.6c0.2-0.2,0.4-0.2,0.6-0.2h14.8c0.2,0,0.4,0.1,0.6,0.2
	c0.2,0.2,0.2,0.4,0.2,0.6v2.1c0,0.4-0.1,0.7-0.4,1l-5.9,6.1h0.4c1.9,0.1,3.7,0.8,5.2,2c1.3,1.3,2,3.1,1.9,4.9c0,1.4-0.4,2.8-1.2,4
	c-0.8,1.2-2,2.1-3.4,2.6c-1.6,0.6-3.2,0.9-4.9,0.9C165.5,42.3,163.8,41.9,162.2,41.2"/>
<path class="st0" d="M183.5,41.1c-1.4-0.6-2.6-1.7-3.4-3c-0.8-1.3-1.2-2.8-1.2-4.3c0-2,0.9-4.2,2.7-6.7l6.3-8.6l0.5-0.5
	c0.2-0.1,0.5-0.2,0.7-0.2h3.3c0.2,0,0.4,0.1,0.5,0.2c0.1,0.1,0.2,0.3,0.2,0.5c0,0.2,0,0.3-0.1,0.4l-4.8,6.6c0.5-0.1,0.9-0.1,1.4-0.1
	c1.5,0,2.9,0.4,4.2,1.1c1.3,0.7,2.3,1.7,3.1,2.9c0.8,1.2,1.2,2.6,1.2,4.1c0,1.5-0.4,3-1.2,4.3c-0.8,1.3-2,2.4-3.3,3.1
	c-1.5,0.8-3.3,1.2-5,1.2C186.8,42.2,185,41.9,183.5,41.1 M191.8,37c0.9-0.9,1.4-2.1,1.3-3.3c0.1-1.2-0.4-2.4-1.3-3.2
	c-0.9-0.8-2.1-1.2-3.3-1.2c-1.2-0.1-2.3,0.4-3.2,1.2c-0.9,0.8-1.4,2-1.3,3.2c-0.1,1.2,0.4,2.4,1.3,3.3c0.9,0.8,2,1.2,3.2,1.2
	C189.7,38.2,190.8,37.8,191.8,37"/>
<path class="st0" d="M202.7,39.6c-1.6-1.9-2.4-4.2-2.5-6.7v-6.4c0-2.4,0.9-4.8,2.5-6.6c1.5-1.7,3.8-2.5,6.8-2.5s5.3,0.8,6.8,2.5
	c1.6,1.8,2.5,4.2,2.5,6.6c0,1.3,0.1,2.4,0.1,3.2c0,0.9,0,1.9-0.1,3.2c0,2.5-0.9,4.8-2.5,6.7c-1.5,1.7-3.8,2.5-6.9,2.5
	C206.4,42.2,204.2,41.3,202.7,39.6 M212.7,36.8c0.8-1.2,1.2-2.6,1.1-4v-6.1c0.1-1.4-0.3-2.8-1.1-3.9c-0.8-0.9-2-1.5-3.2-1.4
	c-1.2-0.1-2.4,0.5-3.2,1.4c-0.8,1.1-1.2,2.5-1.1,3.9v6.1c-0.1,1.4,0.3,2.8,1.1,4c0.8,0.9,2,1.5,3.2,1.4
	C210.7,38.3,211.9,37.7,212.7,36.8"/>
<path class="st0" d="M109.6,21.5c-0.2-0.2-0.2-0.4-0.2-0.6v-2.3c0-0.2,0.1-0.4,0.2-0.6c0.2-0.1,0.4-0.2,0.6-0.2h3.3
	c0.2,0,0.4,0.1,0.6,0.2c0.1,0.2,0.2,0.4,0.2,0.6v2.3c0,0.2-0.1,0.4-0.2,0.6c-0.1,0.2-0.4,0.2-0.6,0.2h-3.3
	C109.9,21.7,109.7,21.7,109.6,21.5"/>
<path d="M222.2,17.7L222.2,17.7l-0.1-0.1v-3.5h-1.3v-0.5h3.1v0.5h-1.2v3.6H222.2z"/>
<path d="M224.6,17.7L224.6,17.7l-0.1-0.1v-4h0.5v0.1l1.3,2.4l1.3-2.4v-0.1h0.5v4.1h-0.5v-3.1l-1,2c0,0.1,0,0.1-0.1,0.1l0,0h-0.4
	l-0.1-0.1l-1-2v3.1H224.6z"/>
<path d="M224.7,21.4c-3.3,0-6-2.7-6-6s2.7-6,6-6s6,2.7,6,6C230.7,18.7,228,21.4,224.7,21.4z M224.7,9.9c-3,0-5.5,2.5-5.5,5.5
	s2.5,5.5,5.5,5.5s5.5-2.5,5.5-5.5C230.2,12.4,227.8,9.9,224.7,9.9C224.7,9.9,224.7,9.9,224.7,9.9z"/>
</svg>
