<svg xmlns="http://www.w3.org/2000/svg" width="181.54" height="147.77" viewBox="0 0 181.54 147.77"><g transform="translate(-0.07 -0.47)"><path d="M181.61,9.05A8.59,8.59,0,0,0,173,.47H8.65A8.59,8.59,0,0,0,.07,9.05V118.64a8.59,8.59,0,0,0,8.58,8.58h2.49v-5H8.65a3.6,3.6,0,0,1-3.6-3.6V9.05a3.6,3.6,0,0,1,3.6-3.6H173a3.61,3.61,0,0,1,3.6,3.6V118.64a3.6,3.6,0,0,1-3.6,3.6H144.29v5H173a8.59,8.59,0,0,0,8.58-8.58Z" fill-rule="evenodd"/><path d="M21.24,140.41a7.84,7.84,0,0,0,7.83,7.83h13.4v-4.55H29.07a3.29,3.29,0,0,1-3.29-3.28V65.77H88v8.81h4.55V40.32a7.84,7.84,0,0,0-7.84-7.83H29.07a7.84,7.84,0,0,0-7.83,7.83ZM25.78,40.32A3.29,3.29,0,0,1,29.07,37h55.6A3.29,3.29,0,0,1,88,40.32v20.9H25.78Z" fill-rule="evenodd"/><path d="M114.72,128.77a34.89,34.89,0,0,0,2.58-13.24,35.31,35.31,0,1,0-67.85,13.74,2.29,2.29,0,0,0,2.95,1.2,2.26,2.26,0,0,0,1.2-3,30.81,30.81,0,1,1,57-.45,2.21,2.21,0,0,0,0,1.73,2.24,2.24,0,0,0,4.15,0Z" fill-rule="evenodd"/><path d="M82,104.24c6.34,0,11.5,5.76,11.5,12.84v31.16H98V117.08c0-9.56-7.18-17.34-16-17.34s-16,7.78-16,17.34v31.16h4.5V117.08C70.49,110,75.65,104.24,82,104.24Z" fill-rule="evenodd"/><path d="M82,113a5.5,5.5,0,0,0-5.5,5.5v8.25h11V118.5A5.5,5.5,0,0,0,82,113" fill="#c3002f" fill-rule="evenodd"/><path d="M153.83,76.28c1.26-4.93-1.22-11.19-6.93-12.65a8.67,8.67,0,0,0-7.48,1.4,8.63,8.63,0,0,0-5.89-4.81c-5.71-1.46-10.89,2.84-12.15,7.77-1.83,7.19,9.5,20.34,10.8,21.81a1.63,1.63,0,0,0,.79.48,1.52,1.52,0,0,0,.92,0c1.85-.68,18.1-6.77,19.94-14" fill="#c3002f" fill-rule="evenodd"/><path d="M151.71,54.42a.75.75,0,0,0,.41.12.78.78,0,0,0,.41-.12c.75-.51,7.35-5.12,7.35-8.56A4.81,4.81,0,0,0,155.32,41a4,4,0,0,0-3.2,1.49A4,4,0,0,0,148.91,41a4.81,4.81,0,0,0-4.56,4.89c0,3.44,6.6,8,7.36,8.56" fill="#c3002f" fill-rule="evenodd"/><path d="M130.21,49.79a.75.75,0,0,0,.42,0,.78.78,0,0,0,.37-.22c.6-.69,5.85-6.79,5-10.12a4.81,4.81,0,0,0-5.64-3.6,4,4,0,0,0-2.73,2.23,4,4,0,0,0-3.47-.64,4.8,4.8,0,0,0-3.2,5.87c.85,3.33,8.39,6.15,9.25,6.46" fill="#c3002f" fill-rule="evenodd"/><path d="M54.09,54.06h5.56a2.78,2.78,0,1,0,0-5.56H54.09a2.78,2.78,0,0,0,0,5.56" fill="#c3002f" fill-rule="evenodd"/></g></svg>