<svg xmlns="http://www.w3.org/2000/svg" width="58.252" height="69.953" viewBox="0 0 58.252 69.953">
  <path id="codeigniter" d="M28.334,69.948c-4.194-1.813-8.119-6.421-8.129-11.136-.011-5.14,3.246-9.5,7.3-12.373-.487,1.84-.753,3.524.454,5.17A4.887,4.887,0,0,0,32.9,53.48c4.335-.949,4.534-5.715,1.964-8.491-2.541-2.749-5-5.855-4.032-9.842A10.254,10.254,0,0,1,34.1,29.937c-1.2,3.141,2.2,6.238,4.438,7.78,3.881,2.677,8.14,4.7,11.709,7.837,3.754,3.3,6.526,7.756,5.966,12.927-.607,5.6-5.06,9.5-10.056,11.471,10.557-2.33,21.465-10.523,21.688-22.231.185-9.632-6.422-17.045-14.608-21.289l-.428-.233a3.485,3.485,0,0,1,.29,1.424,4.979,4.979,0,0,0,.137-.945,4.607,4.607,0,0,1-.15,1.142l.013-.2a4.8,4.8,0,0,1-.606,1.444l.12-.129a5.137,5.137,0,0,1-8.238.492c-3.511-4.511.074-9.375.575-14.152C45.576,9.291,41.822,3.478,37.166,0c2.564,4.148-.814,9.635-3.517,12.7-2.621,2.974-5.808,5.457-8.7,8.159a72.522,72.522,0,0,0-8.65,9.365c-5.109,6.818-8.236,15.392-5.938,23.9s9.659,13.91,17.973,15.823Z" transform="translate(-9.594)" fill="#ee4323"/>
</svg>
