<svg xmlns="http://www.w3.org/2000/svg" width="60.092" height="68.19" viewBox="0 0 60.092 68.19">
  <g id="Group_43" data-name="Group 43" transform="translate(-588 -4924.001)">
    <path id="Path_361" data-name="Path 361" d="M27.716,2.31c.491,0,.736.245,1.226.491C26,4.027,23.056,7.215,21.584,14.083l-5.4,1.472C17.905,10.649,21.339,2.31,27.716,2.31Zm2.7,2.453a17.1,17.1,0,0,1,.981,5.887v.491L24.282,13.1C25.754,7.951,28.207,5.744,30.414,4.763Zm6.377,4.415-3.189.981V9.423a16.857,16.857,0,0,0-.736-5.4C34.584,4.517,36.055,6.725,36.791,9.178ZM52.734,13.1a.528.528,0,0,0-.491-.491c-.491,0-5.641-.491-5.641-.491S42.923,8.442,42.432,8.2c-.491-.491-1.226-.245-1.472-.245,0,0-.736.245-1.962.736-1.226-3.434-3.434-6.622-7.113-6.622H31.64A4.337,4.337,0,0,0,27.961.1c-8.83-.245-13,10.792-14.471,16.433-1.962.491-3.924,1.226-6.132,1.962-1.962.491-1.962.736-2.207,2.453C4.905,22.177,0,60.93,0,60.93l39,7.358,21.094-4.66S52.734,13.592,52.734,13.1Z" transform="translate(588 4923.902)" fill="#8db849"/>
    <path id="Path_362" data-name="Path 362" d="M28.9,7.96c-.245,0-5.4-.491-5.4-.491s-3.679-3.679-4.17-3.924c-.245-.245-.245-.245-.491-.245L15.9,63.637l21.094-4.66S29.635,8.941,29.635,8.451c0-.245-.491-.491-.736-.491" transform="translate(611.099 4928.554)" fill="#5a863e"/>
    <path id="Path_363" data-name="Path 363" d="M26.51,10.6l-2.7,7.849a11.63,11.63,0,0,0-5.151-1.226c-4.17,0-4.415,2.453-4.415,3.189,0,3.434,9.32,4.905,9.32,13.245,0,6.622-4.17,10.792-9.811,10.792A13.481,13.481,0,0,1,3.7,40.278l1.717-5.887s3.434,2.943,6.377,2.943a2.56,2.56,0,0,0,2.7-2.7c0-4.66-7.6-4.905-7.6-12.509,0-6.377,4.66-12.509,13.735-12.509,4.17-.245,5.887.981,5.887.981" transform="translate(593.375 4937.687)" fill="#fffffe"/>
  </g>
</svg>
