<svg id="swift-15" xmlns="http://www.w3.org/2000/svg" xmlns:xlink="http://www.w3.org/1999/xlink" width="71.028" height="71" viewBox="0 0 71.028 71">
  <defs>
    <linearGradient id="linear-gradient" x1="-7.219" y1="4.905" x2="-7.029" y2="3.833" gradientUnits="objectBoundingBox">
      <stop offset="0" stop-color="#faae42"/>
      <stop offset="1" stop-color="#ef3e31"/>
    </linearGradient>
    <linearGradient id="linear-gradient-2" x1="0.598" y1="0.02" x2="0.436" y2="0.978" gradientUnits="objectBoundingBox">
      <stop offset="0" stop-color="#e39f3a"/>
      <stop offset="1" stop-color="#d33929"/>
    </linearGradient>
  </defs>
  <path id="Path_337" data-name="Path 337" d="M16.059,0H55.386a16.578,16.578,0,0,1,5.575.943,15.748,15.748,0,0,1,10.151,12.37,19.129,19.129,0,0,1,.194,3.079V54.748A17.966,17.966,0,0,1,71,58.409a15.777,15.777,0,0,1-10.678,11.87A16.673,16.673,0,0,1,55.359,71c-.749,0-39.411,0-39.993-.028a15.826,15.826,0,0,1-7.988-2.635A16.029,16.029,0,0,1,1.97,62.125,15.65,15.65,0,0,1,.389,55.219V15.781a14.722,14.722,0,0,1,1.47-6.795,15.748,15.748,0,0,1,5.353-6.24,15.535,15.535,0,0,1,7.96-2.69A4.626,4.626,0,0,1,16.059,0Z" transform="translate(-0.278)" fill="url(#linear-gradient)"/>
  <path id="Path_338" data-name="Path 338" d="M59.906,58.076a10.833,10.833,0,0,0-.832-1.137,11.78,11.78,0,0,0-2.385-2.163A7.3,7.3,0,0,0,52.945,53.5a6.779,6.779,0,0,0-2.773.444,18.075,18.075,0,0,0-2.579,1.193c-.971.5-1.941,1-2.968,1.414a22.3,22.3,0,0,1-3.8,1.165,24.7,24.7,0,0,1-4.937.388,33.364,33.364,0,0,1-8.764-1.331A33.152,33.152,0,0,1,20,53.694a36.752,36.752,0,0,1-5.519-3.911,40.333,40.333,0,0,1-3.938-3.911c-.832-.971-1.636-2-2.385-3.051a12.936,12.936,0,0,1-.832-1.3L0,33.614V15.725A15.707,15.707,0,0,1,15.7,0H29.7L40.076,10.539c23.408,15.92,15.836,33.475,15.836,33.475S62.569,51.5,59.906,58.076Z" fill="url(#linear-gradient-2)"/>
  <path id="Path_339" data-name="Path 339" d="M59.21,38C82.618,53.92,75.046,71.475,75.046,71.475s6.656,7.516,3.966,14.089c0,0-2.746-4.6-7.35-4.6-4.437,0-7.045,4.6-15.975,4.6C35.8,85.564,26.4,68.952,26.4,68.952c17.916,11.787,30.147,3.439,30.147,3.439-8.071-4.687-25.238-27.1-25.238-27.1C46.258,58.024,52.72,61.38,52.72,61.38,48.865,58.191,38.048,42.6,38.048,42.6,46.7,51.368,63.9,63.6,63.9,63.6,68.778,50.064,59.21,38,59.21,38Z" transform="translate(-19.078 -27.461)" fill="#fff"/>
</svg>
